<?xml version="1.0" encoding="UTF-8"?>
<svg width="948px" height="388px" viewBox="0 0 948 388" xmlns="http://www.w3.org/2000/svg" xmlns:xlink="http://www.w3.org/1999/xlink" version="1.1">
 <!-- Generated by Pixelmator Pro 2.1.4 -->
 <g id="-copy-copy">
  <path id="Path-3" d="M863.091 331.785 L830.682 290.487 C835.732 283.742 840.32 276.641 844.402 269.228 855.322 249.401 862.616 227.374 865.435 204.103 866.729 193.426 867.085 182.482 866.417 171.374 860.61 75.201 778.589 -0.55 682.266 1.481 578.624 3.663 498.346 92.247 505.541 194.939 512.417 293.181 601.964 368.457 700.261 362.557 L705.712 362.232 C724.27 361.119 738.416 345.167 737.303 326.609 736.19 308.051 720.239 293.906 701.687 295.018 L695.036 295.418 C633.967 299.081 579.274 254.814 573.029 193.951 566.179 127.219 618.434 68.945 685.773 68.763 742.003 68.613 790.621 110.786 798.322 166.492 800.672 183.5 799.166 200.015 794.515 215.26 792.49 221.911 789.84 228.305 786.677 234.4 L763.206 204.49 C756.605 195.739 746.529 190.72 735.553 190.72 727.99 190.72 720.795 193.133 714.744 197.696 707.362 203.259 702.593 211.366 701.305 220.517 700.024 229.668 702.38 238.775 708.056 246.288 L807.942 373.577 C814.542 382.328 824.618 387.347 835.595 387.347 843.158 387.347 850.352 384.934 856.403 380.371 861.929 376.202 866.035 370.558 868.279 364.044 872.036 353.15 870.136 341.142 863.091 331.785 Z" fill="#5eb5e6" fill-opacity="1" stroke="none"/>
  <g id="group-1">
   <path id="Path-4" d="M255.064 178.5 L255.064 268.009 232.181 268.009 232.181 179.506 C232.181 147.203 215.354 128.695 187.426 128.695 168.243 128.695 150.072 137.783 137.621 158.641 138.971 164.698 139.64 171.43 139.64 178.494 L139.64 268.003 116.756 268.003 116.756 179.506 C116.756 147.203 99.592 128.695 72.001 128.695 53.493 128.695 36.329 138.114 23.884 156.96 L23.884 268.009 1 268.009 1 112.543 23.884 112.543 23.884 130.376 C36.672 115.906 52.487 107.492 76.039 107.492 98.923 107.492 118.106 117.925 129.207 136.433 144.353 117.925 163.867 107.492 191.464 107.492 228.818 107.492 255.064 134.751 255.064 178.5 Z" fill="#5eb5e6" fill-opacity="1" stroke="none"/>
   <path id="Path-5" d="M347.28 351.468 L322.715 351.468 357.038 276.091 277.623 112.543 302.526 112.543 369.151 249.501 431.408 112.543 455.973 112.543 Z" fill="#5eb5e6" fill-opacity="1" stroke="none"/>
  </g>
  <g id="group-2">
   <path id="Path-6" d="M946 279.829 C946 299.825 929.761 314.702 910.221 314.702 890.825 314.702 874.442 299.825 874.442 279.829 874.442 259.99 890.825 244.957 910.221 244.957 929.767 244.957 946 259.99 946 279.829 Z M939.087 279.829 C939.087 263.746 925.704 251.27 910.227 251.27 894.738 251.27 881.368 263.746 881.368 279.829 881.368 295.912 894.745 308.389 910.227 308.389 925.704 308.389 939.087 295.912 939.087 279.829 Z M916.084 284.192 L925.704 295.912 919.091 295.912 909.921 284.636 903.302 284.636 903.302 295.912 898.195 295.912 898.195 262.396 912.171 262.396 C919.235 262.396 924.648 266.903 924.648 273.666 924.654 279.079 921.197 282.836 916.084 284.192 Z M903.308 279.829 L912.028 279.829 C916.241 279.829 919.241 277.423 919.241 273.516 919.241 269.76 916.241 267.203 912.028 267.203 L903.308 267.203 Z" fill="#5eb5e6" fill-opacity="1" stroke="none"/>
  </g>
 </g>
</svg>
